# xmcd
#
# Track frame offsets:
#	150
#	16592
#	32482
#	45512
#	56127
#	72770
#	87690
#	102455
#	117682
#	131192
#	146865
#	159122
#	174350
#	186280
#	204597
#
# Disc length: 2875 seconds
#
# Revision: 0
# Processed by: cddbd v1.5.2PL0 Copyright (c) Steve Scherf et al.
# Submitted via: EasyCDDAExtractor 10.0.3.1
#
DISCID=d60b390f
DTITLE=Olivia Newton-John - Legend Disc 1
DYEAR=1998
DGENRE=Ballad
TTITLE0=I Honestly Love You
TTITLE1=Have You Never Been Mellow
TTITLE2=If Not For You
TTITLE3=Help Me Make It Through The Night
TTITLE4=If You Could Read My Mind
TTITLE5=Country Roads
TTITLE6=Banks Of Ohio
TTITLE7=Where Are You Going To My Love
TTITLE8=Lullaby
TTITLE9=No Regrets
TTITLE10=If I Gotta Leave
TTITLE11=If We Only Have Love
TTITLE12=Would You Follow Me
TTITLE13=It's So Hard To Say Goodbye
TTITLE14=If
EXTD=
EXTT0=
EXTT1=
EXTT2=
EXTT3=
EXTT4=
EXTT5=
EXTT6=
EXTT7=
EXTT8=
EXTT9=
EXTT10=
EXTT11=
EXTT12=
EXTT13=
EXTT14=
PLAYORDER=
